<?xml version="1.0" encoding="iso-8859-1"?>
<!-- Generator: Adobe Illustrator 16.0.0, SVG Export Plug-In . SVG Version: 6.00 Build 0)  -->
<!DOCTYPE svg PUBLIC "-//W3C//DTD SVG 1.1//EN" "http://www.w3.org/Graphics/SVG/1.1/DTD/svg11.dtd">
<svg version="1.1" id="Capa_1" xmlns="http://www.w3.org/2000/svg" xmlns:xlink="http://www.w3.org/1999/xlink" x="0px" y="0px"
	 width="561.131px" height="561.131px" viewBox="0 0 561.131 561.131" style="enable-background:new 0 0 561.131 561.131;"
	 xml:space="preserve">
<g>
	<g>
		<path d="M6.684,373.604l205.993,24.55c5.033,0.601,6.909-2.38,4.189-6.658l-39.245-61.689c-2.72-4.278-1.457-9.948,2.876-12.583
			c2.549-1.548,5.19-3.146,7.867-4.804c4.327-2.843,9.137-5.113,14.03-7.764c2.463-1.307,4.966-2.635,7.509-3.983
			c1.276-0.68,2.561-1.362,3.858-2.054c1.328-0.603,2.668-1.209,4.015-1.817c5.429-2.467,11.007-4.997,16.708-7.586
			c5.792-2.39,11.827-4.557,17.953-6.946c6.099-2.546,12.525-4.256,18.997-6.368c3.253-1.028,6.527-2.059,9.816-3.1
			c3.342-0.832,6.701-1.671,10.077-2.512c6.769-1.659,13.616-3.592,20.611-4.707l10.518-1.977c3.522-0.691,7.06-1.358,10.615-1.723
			c7.108-0.854,14.271-1.919,21.441-2.628c7.212-0.49,14.395-0.979,21.521-1.463c7.148-0.211,14.263-0.168,21.35-0.269
			c3.553-0.113,7.057,0.049,10.539,0.25c3.498,0.171,6.971,0.343,10.413,0.511c3.442,0.217,6.913,0.227,10.282,0.612
			c3.381,0.364,6.731,0.726,10.046,1.083c6.64,0.747,13.228,1.27,19.492,2.488c6.337,1.062,12.503,2.096,18.464,3.094
			c5.912,1.346,11.625,2.647,17.111,3.895c2.662,0.603,5.27,1.197,7.818,1.775c2.638,0.799,5.217,1.576,7.729,2.335
			c5.024,1.518,9.792,2.959,14.271,4.314c4.435,1.42,8.776,2.476,12.445,3.942c3.715,1.438,7.127,2.757,10.208,3.95
			c4.363,1.692,8.075,3.13,11.056,4.287c4.728,1.833,5.19,0.976,1.025-1.919c-2.653-1.845-5.967-4.149-9.868-6.863
			c-2.81-1.943-5.915-4.095-9.3-6.438c-3.394-2.393-7.24-4.364-11.255-6.812c-4.036-2.372-8.329-4.893-12.854-7.552
			c-2.265-1.331-4.584-2.693-6.962-4.091c-2.592-1.3-5.244-2.631-7.953-3.99c-5.278-2.622-10.777-5.355-16.469-8.186
			c-5.859-2.506-11.919-5.098-18.146-7.763c-6.218-2.831-12.834-5.021-19.575-7.479c-3.384-1.215-6.805-2.442-10.26-3.681
			c-3.461-1.261-7.041-2.154-10.618-3.265c-3.599-1.062-7.228-2.133-10.885-3.21c-3.659-1.107-7.365-2.182-11.145-2.986
			c-7.536-1.732-15.195-3.623-22.986-5.267c-7.861-1.355-15.787-2.72-23.743-4.088c-8.008-1.132-16.107-1.897-24.247-2.846
			c-4.073-0.539-8.148-0.765-12.23-0.958c-4.095-0.217-8.186-0.438-12.271-0.655c-8.204-0.618-16.353-0.376-24.502-0.358
			c-4.082,0.031-8.148,0.064-12.197,0.095c-4.036,0.257-8.054,0.514-12.044,0.771c-7.99,0.594-15.998,0.845-23.724,2.004
			c-7.757,1.007-15.468,1.86-22.968,3.014c-7.47,1.401-14.78,2.775-21.895,4.109c-1.787,0.343-3.562,0.683-5.324,1.022
			c-1.735,0.431-3.458,0.859-5.168,1.285c-3.43,0.86-6.805,1.707-10.128,2.54c-6.634,1.729-13.176,3.158-19.195,5.227
			c-12.188,3.917-23.284,7.102-33.636,11.484c-0.08,0.03-0.156,0.061-0.232,0.092c-0.128,0.052-2.439-3.375-5.159-7.653
			l-38.033-59.798c-2.721-4.278-6.215-3.843-7.806,0.97L0.447,363.799C-1.144,368.612,1.646,373.004,6.684,373.604z"/>
	</g>
</g>
<g>
</g>
<g>
</g>
<g>
</g>
<g>
</g>
<g>
</g>
<g>
</g>
<g>
</g>
<g>
</g>
<g>
</g>
<g>
</g>
<g>
</g>
<g>
</g>
<g>
</g>
<g>
</g>
<g>
</g>
</svg>
